<svg width="58" height="64" viewBox="0 0 58 64" fill="none" xmlns="http://www.w3.org/2000/svg">
<path d="M50.564 0C55.3307 7.75149 58 16.431 58 25.5951C58 35.3911 54.2663 47.7131 46.6394 55.6235C46.0334 56.2624 45.3911 56.8722 44.7152 57.4502C42.0625 59.748 39.007 61.533 35.5427 62.5743L35.5399 62.5741C32.7254 63.4967 29.6897 64 26.5244 64C19.188 64 12.5476 61.298 7.74578 56.9317C13.2976 40.3176 24.9445 31.3768 30.1848 28.9519L30.185 28.9521C35.2266 26.7236 37.5717 25.2715 38.8821 24.1604C39.5384 23.6038 39.9339 23.1337 40.2772 22.6981C40.6206 22.2624 40.9067 21.8682 41.3501 21.4506L41.2366 21.3142C38.1415 23.6537 33.373 25.0107 31.3725 25.3964C24.0233 26.4705 17.7366 31.225 12.8669 36.7193C8.38717 41.7738 5.09963 47.4631 3.27963 51.5159C3.2199 51.4176 3.16071 51.319 3.10246 51.2198L3.09935 51.2289L3.09762 51.2334C1.12067 47.8661 0 44.0225 0 39.9413V39.9197C0 26.6324 11.8754 15.8609 26.5244 15.8609C26.7138 15.8609 26.9028 15.8631 27.0913 15.8667C38.622 14.8588 47.9724 8.35789 50.564 0Z" fill="#58B741"/>
<path d="M57.9062 22.6271C57.9685 23.6104 58 24.5999 58 25.5951C58 35.3911 54.2663 47.7131 46.6394 55.6235C46.0334 56.2624 45.3911 56.8722 44.7152 57.4502C42.0625 59.748 39.007 61.533 35.5427 62.5743L35.5399 62.5741C32.7254 63.4967 29.6897 64 26.5244 64C19.188 64 12.5476 61.298 7.74578 56.9317C7.74758 56.9263 7.74933 56.9209 7.75113 56.9155C10.8238 57.6854 14.0607 58.0974 17.4037 58.0974C21.7174 58.0974 25.8544 57.412 29.6901 56.1558L29.6938 56.156C34.4151 54.7381 38.5791 52.3076 42.1942 49.1787C43.1152 48.3918 43.9906 47.5615 44.8165 46.6914C51.1073 40.1724 55.4543 31.4527 57.9062 22.6271Z" fill="#49A010"/>
<path d="M41.6481 3.43369C41.4384 4.89887 40.0659 5.91186 38.5824 5.69626C37.0989 5.48066 36.0663 4.11812 36.2759 2.65294C36.4856 1.18776 37.8581 0.174777 39.3416 0.390374C40.8251 0.605972 41.8577 1.96851 41.6481 3.43369Z" fill="#3A7F0D"/>
<path d="M32.9912 9.51121C32.8457 10.5279 31.8933 11.2309 30.8639 11.0812C29.8345 10.9316 29.1179 9.98615 29.2634 8.96944C29.4089 7.95272 30.3613 7.24979 31.3907 7.3994C32.4201 7.54901 33.1367 8.4945 32.9912 9.51121Z" fill="#58B741"/>
</svg>
